<svg t="1720592102652" class="icon" viewBox="0 0 1024 1024" version="1.1" xmlns="http://www.w3.org/2000/svg" p-id="12752" width="64" height="64"><path d="M213.333333 85.333333a128 128 0 0 0-128 128v469.333334a128 128 0 0 0 128 128 128 128 0 0 0 128 128h469.333334a128 128 0 0 0 128-128V341.333333a128 128 0 0 0-128-128 128 128 0 0 0-128-128H213.333333z m597.333334 213.333334a42.666667 42.666667 0 0 1 42.666666 42.666666v469.333334a42.666667 42.666667 0 0 1-42.666666 42.666666H341.333333a42.666667 42.666667 0 0 1-42.666666-42.666666h384a128 128 0 0 0 128-128V298.666667zM170.666667 213.333333a42.666667 42.666667 0 0 1 42.666666-42.666666h469.333334a42.666667 42.666667 0 0 1 42.666666 42.666666v469.333334a42.666667 42.666667 0 0 1-42.666666 42.666666H213.333333a42.666667 42.666667 0 0 1-42.666666-42.666666V213.333333z" p-id="12753" fill="#1296db"></path></svg>