<svg t="1719136087220" class="icon" viewBox="0 0 1024 1024" version="1.1" xmlns="http://www.w3.org/2000/svg" p-id="2848" width="32" height="32"><path d="M760.4736 493.9264c-9.984-9.984-26.2144-9.984-36.1984 0l-212.2752 212.2752 0-578.2016c0-14.1312-11.4688-25.6-25.6-25.6s-25.6 11.4688-25.6 25.6l0 578.2016-212.2752-212.2752c-9.984-9.984-26.2144-9.984-36.1984 0s-9.984 26.2144 0 36.1984l256 256c5.0176 5.0176 11.5712 7.4752 18.1248 7.4752s13.1072-2.5088 18.1248-7.5264l256-256c9.984-9.984 9.984-26.2144 0-36.1984z" fill="#ffffff" p-id="2849"></path><path d="M896 972.8l-819.2 0c-42.3424 0-76.8-34.4576-76.8-76.8l0-102.4c0-14.1312 11.4688-25.6 25.6-25.6s25.6 11.4688 25.6 25.6l0 102.4c0 14.1312 11.4688 25.6 25.6 25.6l819.2 0c14.1312 0 25.6-11.4688 25.6-25.6l0-102.4c0-14.1312 11.4688-25.6 25.6-25.6s25.6 11.4688 25.6 25.6l0 102.4c0 42.3424-34.4576 76.8-76.8 76.8z" fill="#ffffff" p-id="2850"></path></svg>