<svg t="1720107265549" class="icon" viewBox="0 0 1024 1024" version="1.1" xmlns="http://www.w3.org/2000/svg" p-id="9607" width="64" height="64"><path d="M849.952 197.504a32 32 0 0 0-29.824-3.2L512 317.536 203.872 194.272A32 32 0 0 0 160 224v544a32 32 0 0 0 64 0V271.264l276.128 110.464a32.352 32.352 0 0 0 23.744 0L800 271.264V768a32 32 0 0 0 64 0V224a32 32 0 0 0-14.048-26.496z" p-id="9608" fill="#1296db"></path><path d="M645.376 590.24a168.096 168.096 0 0 1-266.848 0 32 32 0 0 0-53.152 35.68 231.904 231.904 0 0 0 373.248 0 32 32 0 0 0-53.248-35.52z" p-id="9609" fill="#1296db"></path></svg>