<svg t="1718808103507" class="icon" viewBox="0 0 1024 1024" version="1.1" xmlns="http://www.w3.org/2000/svg" p-id="3575" width="200" height="200"><path d="M703.49 512.66c0 106.3-86.24 192.85-192.25 192.85S319 619 319 512.66 405.24 319.8 511.24 319.8s192.25 86.48 192.25 192.85m232.4-124.45c-4.69-17.43-20.62-29-38.11-27.78a70.57 70.57 0 0 1-19.31-1.42 74.21 74.21 0 0 1-49.77-36.79 78.4 78.4 0 0 1 2.45-80.82 39.25 39.25 0 0 0-4.27-47.87c-22.73-24.14-48.32-44.61-75.25-62.93-41.56-28.28-87-50.2-135.64-62.81-17-4.41-34.59 4-42.34 20.16-12.44 26.15-38.25 42.71-66.48 42.65h-0.22c-28.24 0.05-54-16.5-66.48-42.65-7.76-16.16-25.39-24.56-42.34-20.16-48.67 12.68-94.13 34.57-135.65 62.89-26.93 18.28-52.52 38.74-75.25 62.89a39.25 39.25 0 0 0-4.31 47.9 78.32 78.32 0 0 1 2.45 80.78 73.72 73.72 0 0 1-49.73 36.68 70.72 70.72 0 0 1-19.35 1.53c-17.5-1.37-33.47 10.27-38.07 27.75a476.51 476.51 0 0 0 0 251.28c4.74 17.38 20.61 29 38.07 27.78a74 74 0 0 1 19.35 1.57c24.3 4.92 44.61 22 54.12 45.65a78.46 78.46 0 0 1-6.83 71.78 39.25 39.25 0 0 0 4.31 47.9c22.73 24.14 48.32 44.61 75.21 62.93 41.6 28.36 87 50.2 135.68 62.77 17 4.43 34.6-4 42.34-20.16 12.48-26.17 38.33-42.7 66.59-42.58 28.45 0 54 16.33 66.59 42.62C581.41 955.9 599 964.3 616 959.9c48.66-12.57 94.08-34.45 135.64-62.77 26.93-18.32 52.52-38.78 75.25-63a39.25 39.25 0 0 0 4.27-47.87 78.32 78.32 0 0 1-2.45-80.78 73.92 73.92 0 0 1 69.08-38.21c17.46 1.07 33.32-10.46 38.11-27.78a476.51 476.51 0 0 0 0-251.28" fill="#666666" p-id="3576"></path></svg>